<svg width="291" height="137" viewBox="0 0 291 137" fill="none" xmlns="http://www.w3.org/2000/svg">
<path d="M266.882 0H24.1179C10.7961 0 0 10.8112 0 24.1517V112.848C0 126.189 10.7961 137 24.1179 137H266.882C280.204 137 291 126.189 291 112.848V24.1517C291 10.8112 280.204 0 266.882 0ZM268.294 44.7327C266.981 50.7086 262.177 55.5191 256.21 56.8333C244.398 59.4617 234.098 49.1464 236.698 37.2937C238.01 31.3178 242.814 26.5073 248.781 25.1931C260.593 22.5647 270.894 32.88 268.294 44.7327Z" fill="#AFE56A"/>
<path d="M103.916 81V58.6H111.404C115.116 58.6 119.436 60.072 119.436 64.616C119.436 66.984 118.028 68.456 116.172 69.288C118.316 70.152 120.076 71.816 120.076 74.664C120.076 79.336 115.852 81 112.044 81H103.916ZM108.78 76.616H111.916C113.708 76.616 115.212 75.912 115.212 74.12C115.212 72.328 113.708 71.624 111.916 71.624H108.78V76.616ZM108.78 67.816H111.276C113.068 67.816 114.572 67.176 114.572 65.384C114.572 63.592 113.068 62.984 111.276 62.984H108.78V67.816ZM123.728 58.6H128.592V76.616H138.352V81H123.728V58.6ZM150.308 81.32C143.236 81.32 139.044 75.944 139.044 69.8C139.044 63.624 143.236 58.28 150.308 58.28C157.38 58.28 161.604 63.624 161.604 69.8C161.604 75.944 157.38 81.32 150.308 81.32ZM143.908 69.8C143.908 73.576 146.148 76.936 150.308 76.936C154.468 76.936 156.708 73.576 156.708 69.8C156.708 65.992 154.468 62.664 150.308 62.664C146.148 62.664 143.908 65.992 143.908 69.8ZM175.053 81.32C168.205 81.32 164.013 75.944 164.013 69.8C164.013 63.624 168.205 58.28 175.277 58.28C180.781 58.28 184.525 61.48 185.933 65.832L181.197 66.984C180.397 64.488 178.381 62.664 175.277 62.664C171.117 62.664 168.877 65.992 168.877 69.8C168.877 73.576 171.117 76.936 175.277 76.936C178.253 76.936 180.301 75.368 180.909 72.968H175.277V69.16H185.773V81H182.573L182.317 78.088C180.749 80.104 178.285 81.32 175.053 81.32Z" fill="#FFFFF4"/>
</svg>
