<svg width="1930" height="856" viewBox="0 0 1930 856" fill="none" xmlns="http://www.w3.org/2000/svg">
<path d="M623.123 90.738H641.611L655.556 8.5918L912.983 13.9219C878.826 229.948 835.112 436.567 704.44 646.95L447.483 607.444L499.815 450.52H445.916L345.641 35.3991L606.358 8.5918C608.395 8.90533 623.123 90.738 623.123 90.738Z" fill="#490F1C"/>
<path d="M1232.45 16.9023C1233.86 174.297 1221.49 271.493 1202.69 373.705H1321.92V632.059H936.641V16.9023H1232.61H1232.45Z" fill="#490F1C"/>
<path d="M295.97 16.9023C297.381 174.297 285.003 271.493 266.201 373.705H385.435V632.059H0V16.9023H295.97Z" fill="#490F1C"/>
<path d="M1585.93 2.47509C1437.09 16.1139 1349.97 126.478 1339.94 270.704C1323.65 505.542 1420.79 665.445 1674.3 647.417C1834.9 635.973 1918.88 522.63 1928.59 368.998C1943.64 132.122 1838.82 -20.8833 1585.78 2.31832L1585.93 2.47509ZM1777.55 163.475C1762.04 163.475 1749.35 150.777 1749.35 135.257C1749.35 119.737 1762.04 107.039 1777.55 107.039C1793.06 107.039 1805.76 119.737 1805.76 135.257C1805.76 150.777 1793.06 163.475 1777.55 163.475Z" fill="#490F1C"/>
<path d="M478.977 763.59H558.571V780.521H529.271V853.731H508.433V780.521H479.133V763.59H478.977Z" fill="#490F1C"/>
<path d="M570.781 763.59H634.394V780.521H591.62V800.117H630.32V817.048H591.62V836.644H634.394V853.575H570.781V763.434V763.59Z" fill="#490F1C"/>
<path d="M696.443 762.332C718.065 762.332 733.889 773.933 739.843 790.237L719.005 795.724C715.558 786.161 707.724 780.987 696.443 780.987C681.871 780.987 669.964 791.177 669.964 808.735C669.964 826.293 682.028 836.483 696.443 836.483C707.724 836.483 715.558 831.31 719.005 821.747L739.843 827.234C733.889 843.538 718.065 855.138 696.286 855.138C666.987 855.138 647.715 834.132 647.715 808.735C647.715 783.339 666.987 762.332 696.286 762.332H696.443Z" fill="#490F1C"/>
<path d="M753.652 763.744H774.491V800.271H811.311V763.744H832.15V853.886H811.311V817.359H774.491V853.886H753.652V763.744Z" fill="#490F1C"/>
<path d="M975.182 816.883C959.984 813.591 946.51 807.163 946.51 790.075C946.51 771.89 964.528 762.484 982.076 762.484C1000.88 762.484 1016.55 772.517 1017.96 790.075L997.117 792.897C996.491 785.843 992.104 779.886 982.233 779.886C973.929 779.886 969.385 783.648 969.385 788.194C969.385 792.741 973.145 795.719 979.883 797.13L991.477 799.638C1010.75 803.871 1019.84 812.023 1019.84 826.916C1019.84 844.474 1002.6 854.82 982.076 854.82C961.551 854.82 947.763 845.101 944.473 826.759L965.311 823.937C967.191 832.246 972.519 837.419 981.763 837.419C991.007 837.419 995.551 833.657 995.551 828.17C995.551 823.153 991.634 820.332 983.643 818.607L975.182 816.726V816.883Z" fill="#490F1C"/>
<path d="M1027.98 763.59H1107.58V780.521H1078.28V853.731H1057.44V780.521H1028.14V763.59H1027.98Z" fill="#490F1C"/>
<path d="M1119.79 763.744H1140.63V816.888C1140.63 828.489 1146.42 836.798 1159.59 836.798C1172.75 836.798 1177.45 828.489 1177.45 816.888V763.744H1198.29V816.888C1199.38 836.641 1188.26 854.983 1159.59 854.983C1130.91 854.983 1119.79 836.484 1119.79 816.888V763.744Z" fill="#490F1C"/>
<path d="M1217.43 763.59H1244.84C1277.59 763.59 1296.39 783.499 1296.39 808.739C1296.39 833.979 1277.59 853.888 1244.84 853.888H1217.43V763.747V763.59ZM1244.84 836.33C1263.02 836.33 1273.52 826.454 1273.52 808.739C1273.52 791.024 1262.86 781.148 1244.84 781.148H1238.26V836.33H1244.84Z" fill="#490F1C"/>
<path d="M1333.66 763.59V853.731H1312.82V763.59H1333.66Z" fill="#490F1C"/>
<path d="M1349.96 808.735C1349.96 783.339 1369.24 762.332 1398.54 762.332C1427.84 762.332 1447.11 783.496 1447.11 808.735C1447.11 833.975 1427.84 855.138 1398.54 855.138C1369.24 855.138 1349.96 834.132 1349.96 808.735ZM1425.01 808.735C1425.01 791.177 1412.95 780.987 1398.54 780.987C1384.12 780.987 1372.06 791.177 1372.06 808.735C1372.06 826.293 1384.12 836.483 1398.54 836.483C1412.95 836.483 1425.01 826.293 1425.01 808.735Z" fill="#490F1C"/>
</svg>
