<svg width="350" height="340" viewBox="0 0 350 340" fill="none" xmlns="http://www.w3.org/2000/svg">
<path d="M170 0C76.1245 0 0 76.0997 0 170C0 263.9 76.0997 340 170 340C263.9 340 340 263.9 340 170C340 76.0997 263.9 0 170 0ZM256.367 68.6414C255.05 74.6329 250.227 79.456 244.235 80.7736C232.376 83.4089 222.034 73.0667 224.645 61.1831C225.962 55.1916 230.785 50.3685 236.777 49.0509C248.636 46.4156 258.978 56.7578 256.367 68.6414Z" fill="#F4B6D2"/>
<path d="M128.197 182V159.6H135.941C140.869 159.6 144.549 162.096 144.549 166.928C144.549 171.76 140.869 174.256 135.941 174.256H133.061V182H128.197ZM133.061 170H135.941C138.021 170 139.653 169.04 139.653 166.928C139.653 164.816 138.021 163.856 135.941 163.856H133.061V170ZM157.683 182.32C150.611 182.32 146.419 176.944 146.419 170.8C146.419 164.624 150.611 159.28 157.683 159.28C164.755 159.28 168.979 164.624 168.979 170.8C168.979 176.944 164.755 182.32 157.683 182.32ZM151.283 170.8C151.283 174.576 153.523 177.936 157.683 177.936C161.843 177.936 164.083 174.576 164.083 170.8C164.083 166.992 161.843 163.664 157.683 163.664C153.523 163.664 151.283 166.992 151.283 170.8ZM172.572 182V159.6H180.54C185.244 159.6 188.988 162.032 188.988 166.864C188.988 170.16 187.26 172.336 184.636 173.36L189.372 182H184.06L179.74 174.096H177.436V182H172.572ZM177.436 170.064H180.38C182.46 170.064 184.124 169.072 184.124 166.96C184.124 164.88 182.46 163.856 180.38 163.856H177.436V170.064ZM209.571 159.6V163.984H202.403V182H197.539V163.984H190.371V159.6H209.571ZM212.447 159.6H227.231V163.984H217.311V169.744H226.399V173.904H217.311V182H212.447V159.6ZM240.589 182.32C233.517 182.32 229.325 176.944 229.325 170.8C229.325 164.624 233.517 159.28 240.589 159.28C247.661 159.28 251.885 164.624 251.885 170.8C251.885 176.944 247.661 182.32 240.589 182.32ZM234.189 170.8C234.189 174.576 236.429 177.936 240.589 177.936C244.749 177.936 246.989 174.576 246.989 170.8C246.989 166.992 244.749 163.664 240.589 163.664C236.429 163.664 234.189 166.992 234.189 170.8ZM255.478 159.6H260.342V177.616H270.102V182H255.478V159.6ZM272.978 159.6H277.842V182H272.978V159.6ZM292.714 182.32C285.642 182.32 281.45 176.944 281.45 170.8C281.45 164.624 285.642 159.28 292.714 159.28C299.786 159.28 304.01 164.624 304.01 170.8C304.01 176.944 299.786 182.32 292.714 182.32ZM286.314 170.8C286.314 174.576 288.554 177.936 292.714 177.936C296.874 177.936 299.114 174.576 299.114 170.8C299.114 166.992 296.874 163.664 292.714 163.664C288.554 163.664 286.314 166.992 286.314 170.8Z" fill="#490F1C"/>
</svg>
