<svg width="283" height="373" viewBox="0 0 283 373" fill="none" xmlns="http://www.w3.org/2000/svg">
<path d="M258.916 0H24.084C10.7809 0 0 10.8296 0 24.1927V348.807C0 362.17 10.7809 373 24.084 373H258.916C272.219 373 283 362.17 283 348.807V24.1927C283 10.8296 272.219 0 258.916 0ZM250.534 44.8087C249.223 50.7948 244.426 55.6134 238.467 56.9299C226.672 59.5628 216.386 49.2299 218.982 37.3571C220.293 31.371 225.09 26.5524 231.049 25.2359C242.844 22.6031 253.13 32.9359 250.534 44.8087Z" fill="#178747"/>
<path d="M44.0541 199L37.3341 176.6H42.5501L46.8061 191.384L51.2541 176.6H55.9901L60.4381 191.384L64.6941 176.6H69.9101L63.1901 199H57.9741L53.6221 184.504L49.2701 199H44.0541ZM72.5719 176.6H77.4359V185.528H86.1079V176.6H90.9719V199H86.1079V189.912H77.4359V199H72.5719V176.6ZM102.319 176.6H107.599L116.623 199H111.247L109.615 194.616H100.303L98.6714 199H93.2954L102.319 176.6ZM101.935 190.232H107.983L104.943 182.072L101.935 190.232ZM133.696 176.6V180.984H126.528V199H121.664V180.984H114.496V176.6H133.696ZM146.523 199L139.803 176.6H145.019L149.275 191.384L153.723 176.6H158.459L162.907 191.384L167.163 176.6H172.379L165.659 199H160.443L156.091 184.504L151.739 199H146.523ZM175.041 176.6H189.697V180.984H179.905V185.752H188.609V189.656H179.905V194.616H189.697V199H175.041V176.6ZM207.995 194.616C212.539 194.616 214.875 191.608 214.875 187.8C214.875 183.992 212.539 180.984 207.995 180.984H205.467V194.616H207.995ZM200.603 199V176.6H207.995C215.547 176.6 219.739 181.624 219.739 187.8C219.739 193.976 215.547 199 207.995 199H200.603ZM233.433 199.32C226.361 199.32 222.169 193.944 222.169 187.8C222.169 181.624 226.361 176.28 233.433 176.28C240.505 176.28 244.729 181.624 244.729 187.8C244.729 193.944 240.505 199.32 233.433 199.32ZM227.033 187.8C227.033 191.576 229.273 194.936 233.433 194.936C237.593 194.936 239.833 191.576 239.833 187.8C239.833 183.992 237.593 180.664 233.433 180.664C229.273 180.664 227.033 183.992 227.033 187.8Z" fill="#F4B6D2"/>
</svg>
