<svg width="274" height="274" viewBox="0 0 274 274" fill="none" xmlns="http://www.w3.org/2000/svg">
<path d="M249.846 0H24.1539C10.8122 0 0 10.8122 0 24.1539V249.846C0 263.188 10.8122 274 24.1539 274H249.846C263.188 274 274 263.188 274 249.846V24.1539C274 10.8122 263.188 0 249.846 0ZM251.284 44.7615C249.97 50.738 245.159 55.5489 239.183 56.8632C227.354 59.4919 217.038 49.1757 219.641 37.3219C220.956 31.3455 225.767 26.5345 231.743 25.2202C243.572 22.5915 253.888 32.9078 251.284 44.7615Z" fill="#D0E5ED"/>
<path d="M39.7885 150L33.0685 127.6H38.2845L42.5405 142.384L46.9885 127.6H51.7245L56.1725 142.384L60.4285 127.6H65.6445L58.9245 150H53.7085L49.3565 135.504L45.0045 150H39.7885ZM68.3063 127.6H73.1703V136.528H81.8423V127.6H86.7063V150H81.8423V140.912H73.1703V150H68.3063V127.6ZM101.574 150.32C94.5018 150.32 90.3098 144.944 90.3098 138.8C90.3098 132.624 94.5018 127.28 101.574 127.28C108.646 127.28 112.87 132.624 112.87 138.8C112.87 144.944 108.646 150.32 101.574 150.32ZM95.1738 138.8C95.1738 142.576 97.4138 145.936 101.574 145.936C105.734 145.936 107.974 142.576 107.974 138.8C107.974 134.992 105.734 131.664 101.574 131.664C97.4138 131.664 95.1738 134.992 95.1738 138.8ZM127.351 150L120.631 127.6H125.847L130.103 142.384L134.551 127.6H139.287L143.735 142.384L147.991 127.6H153.207L146.487 150H141.271L136.919 135.504L132.567 150H127.351ZM155.869 127.6H170.525V131.984H160.733V136.752H169.437V140.656H160.733V145.616H170.525V150H155.869V127.6ZM187.054 127.6H192.334L201.358 150H195.982L194.35 145.616H185.038L183.406 150H178.03L187.054 127.6ZM186.67 141.232H192.718L189.678 133.072L186.67 141.232ZM203.681 150V127.6H211.649C216.353 127.6 220.097 130.032 220.097 134.864C220.097 138.16 218.369 140.336 215.745 141.36L220.481 150H215.169L210.849 142.096H208.545V150H203.681ZM208.545 138.064H211.489C213.569 138.064 215.233 137.072 215.233 134.96C215.233 132.88 213.569 131.856 211.489 131.856H208.545V138.064ZM223.963 127.6H238.619V131.984H228.827V136.752H237.531V140.656H228.827V145.616H238.619V150H223.963V127.6Z" fill="#178747"/>
</svg>
