<svg width="453" height="487" viewBox="0 0 453 487" fill="none" xmlns="http://www.w3.org/2000/svg">
<path d="M419.279 2.01535L14.5684 177.023C-2.47937 184.395 -5.18024 207.502 9.73653 218.622L363.403 482.188C378.32 493.307 399.629 484.074 401.785 465.583L452.829 27.0094C454.985 8.51827 436.351 -5.35626 419.279 2.01535ZM429.859 45.277C428.546 51.2587 423.739 56.0738 417.767 57.3893C405.948 60.0203 395.64 49.695 398.242 37.8309C399.555 31.8493 404.362 27.0342 410.334 25.7187C422.153 23.0877 432.461 33.4129 429.859 45.277Z" fill="#490F1C"/>
<path d="M143.335 241L136.615 218.6H141.831L146.087 233.384L150.535 218.6H155.271L159.719 233.384L163.975 218.6H169.191L162.471 241H157.255L152.903 226.504L148.551 241H143.335ZM181.464 241.32C174.392 241.32 170.2 235.944 170.2 229.8C170.2 223.624 174.392 218.28 181.464 218.28C188.536 218.28 192.76 223.624 192.76 229.8C192.76 235.944 188.536 241.32 181.464 241.32ZM175.064 229.8C175.064 233.576 177.304 236.936 181.464 236.936C185.624 236.936 187.864 233.576 187.864 229.8C187.864 225.992 185.624 222.664 181.464 222.664C177.304 222.664 175.064 225.992 175.064 229.8ZM196.353 241V218.6H204.321C209.025 218.6 212.769 221.032 212.769 225.864C212.769 229.16 211.041 231.336 208.417 232.36L213.153 241H207.841L203.521 233.096H201.217V241H196.353ZM201.217 229.064H204.161C206.241 229.064 207.905 228.072 207.905 225.96C207.905 223.88 206.241 222.856 204.161 222.856H201.217V229.064ZM216.634 241V218.6H221.498V228.008L229.69 218.6H235.93L227.034 228.456L235.93 241H229.978L223.738 232.072L221.498 234.536V241H216.634ZM248.46 241L241.74 218.6H246.956L251.212 233.384L255.66 218.6H260.396L264.844 233.384L269.1 218.6H274.316L267.596 241H262.38L258.028 226.504L253.676 241H248.46ZM276.978 218.6H281.842V241H276.978V218.6ZM303.914 218.6V222.984H296.746V241H291.882V222.984H284.714V218.6H303.914ZM306.791 218.6H311.655V227.528H320.327V218.6H325.191V241H320.327V231.912H311.655V241H306.791V218.6ZM345.556 241.32C339.508 241.32 336.66 237.48 336.66 232.488V218.6H341.556V232.488C341.556 235.016 342.772 236.936 345.556 236.936C348.308 236.936 349.556 235.016 349.556 232.488V218.6H354.42V232.488C354.42 237.48 351.604 241.32 345.556 241.32ZM370.369 225.832C369.985 223.304 368.321 222.376 366.465 222.376C364.513 222.376 362.817 223.432 362.817 225.032C362.817 226.472 364.129 226.952 365.921 227.24L368.769 227.688C372.897 228.296 375.457 230.28 375.457 234.376C375.457 238.6 371.617 241.32 366.817 241.32C362.497 241.32 358.273 238.952 357.857 233.864L362.625 233.48C362.913 236.2 364.801 237.224 366.945 237.224C368.993 237.224 370.593 236.232 370.593 234.536C370.593 233.064 369.441 232.424 367.521 232.136L364.673 231.72C360.289 231.08 357.953 228.712 357.953 225.256C357.953 220.968 361.889 218.28 366.497 218.28C370.401 218.28 374.689 220.392 375.265 225.48L370.369 225.832Z" fill="#D0E5ED"/>
</svg>
